# xmcd
#
# Track frame offsets: 
#        150
#        16183
#        35271
#        54387
#        71898
#        85226
#        106387
#        123640
#        147467
#        162653
#        181224
#        200068
#        220643
#        236761
#        261191
#        282738
#        302205
#
# Disc length: 4516 seconds
#
# Revision: 5
# Processed by: cddbd v1.5.1PL0 Copyright (c) Steve Scherf et al.
# Submitted via: ExactAudioCopy v0.95a5
#
DISCID=0711a211
DTITLE=De-Phazz - Death by Chocolate "Special Edition"
DYEAR=2001
DGENRE=Jazz
TTITLE0=Heartfixer
TTITLE1=Something Special
TTITLE2=Nu Chic
TTITLE3=Sabbatical
TTITLE4=Better Now
TTITLE5=Death by Chocolate
TTITLE6=Jeunesse Dorée
TTITLE7=Online
TTITLE8=Jim the Jinn
TTITLE9=Roy's Choice
TTITLE10=Trash Box
TTITLE11=Jump Over
TTITLE12=Maybe San José
TTITLE13=Love's Labour's Lost
TTITLE14=North West
TTITLE15=Saw it on the Radio
TTITLE16=Video
EXTD=YEAR: 2001 ID3G: 8
EXTT0=
EXTT1=
EXTT2=
EXTT3=
EXTT4=
EXTT5=
EXTT6=
EXTT7=
EXTT8=
EXTT9=
EXTT10=
EXTT11=
EXTT12=
EXTT13=
EXTT14=
EXTT15=
EXTT16=
PLAYORDER=
